/* XPM */
static char * wcalc_icon_big[] = {
"48 48 5 1",
"` c white",
"a c CadetBlue",
"b c pink",
"c c cyan",
"d c DarkSlateGray",
"aaaaaaaaaaaaaaaaaaaaaaaaaaaaaaaaaaaaaaaaaaaaaaa`",
"aaaaaaaaaaaaaaaaaaaaaaaaaaaaaaaaaaaaaaaaaaaaaaa`",
"aaaaaaaaaaaaaaaaaaaaaaaaaaaaaaaaaaaaaaaaaaaaaaa`",
"aaaaaaaaaaaaaaaaaaaaaaaaaaaaaaaaaaaaaaaaaaaaaaa`",
"aaaaaaaaaaaaaaaaaaaacbcccccccaaaaaaaaaaaaaaaaaa`",
"aaaaaaaaaaaaaaaaacccabaaaaaaacccaaaaaaaaaaaaaaa`",
"aaaaaaaaaaaaaaaccaaaabaaaaaaaaaaccaaaaaaaaaaaaa`",
"aaaaaaaaaaaaabcaaaaaaabaaaaaaaaaaaccaaaaaaaaaaa`",
"aaaaaaaaaaaacbaaaaaaaabaaaaaaaaaaaaacaaaaaaaaaa`",
"aaaaaaaaaaacaabaaaaaaabbaaccccccccaaacaaaaaaaaa`",
"aaaaaaaaaacaaabaaaaaaaabccaaaaaaaacccacaaaaaaaa`",
"aaaaaaaaacaaaaabaaaaaaccbaaaaaaaaaaaccacaaaaaaa`",
"aaaaaaaacaaaaaaabaaaccaabaaaaaaaaaaaaacccaaaaaa`",
"aaaaaaacaaaaaaaabbaccaaaabaaaaaaaaaaaaacccaaaaa`",
"aaaaaaacaaaaaaaaabbcaaaaaabaaaacccccccaaccaaaaa`",
"aaaaaacaaaaaaaaaaabbaaaaaabbaccaaaaaaaccaccaaaa`",
"aaaaaacaaaaaaaaaacabbaaaaaabbaaaaaaaaaaacacaaaa`",
"aaaaacaaaaaaaaaaccaaabbaaaacbbaaaaaaaaaaacccaaa`",
"aaaabbbaaaaaaaaacaaaaabbaacaaabaaaaaaccccaccaaa`",
"aaaaacbbbaaaaaaacaaaaaaabbaaaaabbaaccaaaacccaaa`",
"aaaacaaaabbbbbacaaaaaaaaacbbaaaaabbcaaaaaacccaa`",
"aaaacaaaaaaaaabbbbbbaaaacaaabbbaaabbbaaaaaaccaa`",
"aaaacaaaaaaaaaacaaaabbbbbbbbbbbbbbaaabbbbaaacaa`",
"aaaacaaaaaaaaaacaaaaaaaacaaaaaabbbbbbbbbbbbbcaa`",
"aaaacaaaaaaaaaacaaaaaaaacaaaaaabbbbbbbbbbbbbcaa`",
"aaaacaaaaaaaaaacaaaabbbbbbbbbbbaacbbbbbbbaaacaa`",
"aaaacaaaaaaaaabbbbbbaaaacaaaaabbbbbbbaaaaaaacaa`",
"aaaacaaaabbbbbacaaaaaaaacaaabbaaabbaaaaaaaaccaa`",
"aaaacabbbaaaaaaacaaaaaaaabbbaaabbaccaaaaaacccaa`",
"aaaabbbaaaaaaaaacaaaaaabbbaaaabaaaaccaaaacccaaa`",
"aaaaacaaaaaaaaaaccaaaabbaacabbaaaaaaaccccaccaaa`",
"aaaaacaaaaaaaaaaacaabbaaaaabbaaaaaaaaaaaacccaaa`",
"aaaaaacaaaaaaaaaaacbbaaaaabbcaaaaaaaaaaacccaaaa`",
"aadaaadaaadaaaaddddcaaaaadbaaccdaaaaaaccddddaaa`",
"aadaaadcaadaaadaabadcaaadbdaaaadccccccadccaadaa`",
"aadaaadcaadaadaabaaaccaadadaaaadaaaaaadcacaaaaa`",
"aaadaadacdaaadabaaaaaacdbaadaaadaaaaccdacaaaaaa`",
"aaadadadadaaadbbaaaaaaadccadaaadaacccadcaaaaaaa`",
"aaadadadadcaadbaaaaaaabdddddcccdccaaaadaaaaaaaa`",
"aaaadaaadaacadaaaaaaaadaaaaadaadaaaaacdaaaaaaaa`",
"aaaadaaadaaacbdaaaadaadaaaaadaadaaaacaadaaaadaa`",
"aaaadaaadaaaaccddddaabdaaaaadaadddddaaaaddddaaa`",
"aaaaaaaaaaaaaaaccaaaabaaaaaaaaaaccaaaaaaaaaaaaa`",
"aaaaaaaaaaaaaaaaacccabaaaaaaacccaaaaaaaaaaaaaaa`",
"aaaaaaaaaaaaaaaaaaaacccccccccaaaaaaaaaaaaaaaaaa`",
"aaaaaaaaaaaaaaaaaaaaaaaaaaaaaaaaaaaaaaaaaaaaaaa`",
"aaaaaaaaaaaaaaaaaaaaaaaaaaaaaaaaaaaaaaaaaaaaaaa`",
"````````````````````````````````````````````````"
};
