/* XPM */
static char * wcalc_icon_med[] = {
"32 32 5 1",
"` c white",
"a c cyan",
"b c DarkSlateGray",
"c c red",
"d c blue",
"aaaaaaaaaaaaaaaaaaaaaaaaaaaaaaa`",
"aaaaaaaaaaaaaaaaaaaaaaaaaaaaaaa`",
"aaaaaaaaaaaaaaaaaaaaaaaaaaaaaaa`",
"aaaaaaaaaaaaaaaaaaaaaaaaaaaaaaa`",
"aaaaaaaaaaaaaaaaaaaaaaaaaaaaaaa`",
"aaaaaaaaaaaaaaaaaaaaaaaaaaaaaaa`",
"aaaaaaaaaaaaaaaaaaaaaaaaaaaaaaa`",
"aaaaaaaaaaaaaaaaaaaaaaaaaaaaaaa`",
"aaaaaaadaaaaaaaaaaaaaaaadaaaaaa`",
"aaaaaadadaaaaaaaaaaaaaadadaaaaa`",
"aaaaaadaaddaaaaaaaaaaddaadaaaaa`",
"aaaaadaaaaddaaaaaaaaddaaaadaaaa`",
"aaaadaaddaaddaaaaaaddaaddaadaaa`",
"aaaadadadddaadaaaadaadddadadaaa`",
"aaadaadbbbbbbbbbbbbbbbbbbdaadaa`",
"aadaadabbbbbbbbbbbbbbbbbbadaada`",
"aadaadabbbbbbbbbbbbbbbbbbadaada`",
"cdccdcccccccccccccccccccccccccc`",
"ccccccccccccccccccccccccccccccc`",
"ccccccccccccccccccccccccccccccc`",
"ccccccccccccccccccccccccccccccc`",
"ccccccccccccccccccccccccccccccc`",
"ccccccccccccccccccccccccccccccc`",
"ccccccccccccccccccccccccccccccc`",
"bbbbbbbbbbbbbbbbbbbbbbbbbbbbbbb`",
"bbbbbbbbbbbbbbbbbbbbbbbbbbbbbbb`",
"bbbbbbbbbbbbbbbbbbbbbbbbbbbbbbb`",
"bbbbbbbbbbbbbbbbbbbbbbbbbbbbbbb`",
"bbbbbbbbbbbbbbbbbbbbbbbbbbbbbbb`",
"bbbbbbbbbbbbbbbbbbbbbbbbbbbbbbb`",
"bbbbbbbbbbbbbbbbbbbbbbbbbbbbbbb`",
"````````````````````````````````"
};
