/* XPM */
static char * alert_fig[] = {
"103 87 4 2",
"`` c white",
"a1 c cyan",
"a2 c red",
"a3 c yellow",
"a1a1a1a1a1a1a1a1a1a1a1a1a1a1a1a1a1a1a1a1a1a1a1a1a1a1a1a1a1a1a1a1a1a1a1a1a1a1a1a1a1a1a1a1a1a1a1a1a1a1a1a1a1a1a1a1a1a1a1a1a1a1a1a1a1a1a1a1a1a1a1a1a1a1a1a1a1a1a1a1a1a1a1a1a1a1a1a1a1a1a1a1a1a1a1a1a1a1a1a1a1a1``",
"a1a1a1a1a1a1a1a1a1a1a1a1a1a1a1a1a1a1a1a1a1a1a1a1a1a1a1a1a1a1a1a1a1a1a1a1a1a1a1a1a1a1a1a1a1a1a1a1a1a1a1a1a1a1a1a1a1a1a1a1a1a1a1a1a1a1a1a1a1a1a1a1a1a1a1a1a1a1a1a1a1a1a1a1a1a1a1a1a1a1a1a1a1a1a1a1a1a1a1a1a1a1``",
"a1a1a1a1a1a1a1a1a1a1a1a1a1a1a1a1a1a1a1a1a1a1a1a1a1a1a1a1a1a1a1a1a1a1a1a1a1a1a1a1a1a1a1a1a1a1a1a1a1a1a1a1a1a1a1a1a1a1a1a1a1a1a1a1a1a1a1a1a1a1a1a1a1a1a1a1a1a1a1a1a1a1a1a1a1a1a1a1a1a1a1a1a1a1a1a1a1a1a1a1a1a1``",
"a1a1a1a1a1a1a1a1a1a1a1a1a1a1a1a1a1a1a1a1a1a1a1a1a1a1a1a1a1a1a1a1a1a1a1a1a1a1a1a1a1a1a1a1a1a1a1a1a1a1a1a1a1a1a1a1a1a1a1a1a1a1a1a1a1a1a1a1a1a1a1a1a1a1a1a1a1a1a1a1a1a1a1a1a1a1a1a1a1a1a1a1a1a1a1a1a1a1a1a1a1a1``",
"a1a1a1a1a1a1a1a1a1a1a1a1a1a1a1a1a1a1a1a1a1a1a1a1a1a1a1a1a1a1a1a1a1a1a1a1a1a1a1a1a1a1a1a1a1a1a1a1a1a1a1a1a1a1a1a1a1a1a1a1a1a1a1a1a1a1a1a1a1a1a1a1a1a1a1a1a1a1a1a1a1a1a1a1a1a1a1a1a1a1a1a1a1a1a1a1a1a1a1a1a1a1``",
"a1a1a1a1a1a1a1a1a1a1a1a1a1a1a1a1a1a1a1a1a1a1a1a1a1a1a1a1a1a1a1a1a1a1a1a1a1a1a1a1a1a1a1a1a1a1a1a1a1a1a1a1a1a1a1a1a1a1a1a1a1a1a1a1a1a1a1a1a1a1a1a1a1a1a1a1a1a1a1a1a1a1a1a1a1a1a1a1a1a1a1a1a1a1a1a1a1a1a1a1a1a1``",
"a1a1a1a1a1a1a1a1a1a1a1a1a1a1a1a1a1a1a1a1a1a1a1a1a1a1a1a1a1a1a1a1a1a2a1a1a1a1a1a1a1a1a1a1a1a1a1a1a1a1a1a1a1a1a1a1a1a1a1a1a1a1a1a1a1a1a1a1a1a1a1a1a1a1a1a1a1a1a1a1a1a1a1a1a1a1a1a1a1a1a1a1a1a1a1a1a1a1a1a1a1a1``",
"a1a1a1a1a1a1a1a1a1a1a1a1a1a1a1a1a1a1a1a1a1a1a1a1a1a1a1a1a1a1a1a1a2a2a1a1a1a1a1a1a1a1a1a1a1a1a1a1a1a1a1a1a1a1a1a1a1a1a1a1a1a1a1a1a1a1a1a1a1a1a1a1a1a1a1a1a1a1a1a1a1a1a1a1a1a1a1a1a1a1a1a1a1a1a1a1a1a1a1a1a1a1``",
"a1a1a1a1a1a1a1a1a1a1a1a1a1a1a1a1a1a1a1a1a1a1a1a1a1a1a1a1a1a1a1a1a2a2a1a1a1a1a1a1a1a1a1a1a1a1a1a1a1a1a1a1a1a1a1a1a1a1a1a1a1a1a1a1a1a1a1a1a1a1a1a1a1a1a1a1a1a1a1a1a1a1a1a1a1a1a1a1a1a1a1a1a1a1a1a1a1a1a1a1a1a1``",
"a1a1a1a1a1a1a1a1a1a1a1a1a1a1a1a1a1a1a1a1a1a1a1a1a1a1a1a1a1a1a1a1a2a2a1a1a1a1a1a1a1a1a1a1a1a2a1a1a1a1a1a1a1a1a1a1a1a1a1a1a1a1a1a1a1a1a1a1a1a1a1a1a1a1a1a1a1a1a1a1a1a1a1a1a1a1a1a1a1a1a1a1a1a1a1a1a1a1a1a1a1a1``",
"a1a1a1a1a1a1a1a1a1a1a1a1a1a1a1a1a1a1a2a1a1a1a1a1a1a1a1a1a1a1a1a1a2a2a1a1a1a1a1a1a1a1a1a1a2a2a2a1a1a1a1a1a1a1a1a1a1a1a1a1a1a1a1a1a1a1a1a1a1a1a1a1a1a1a1a1a1a1a1a1a1a1a1a1a1a1a1a1a1a1a1a1a1a1a1a1a1a1a1a1a1a1``",
"a1a1a1a1a1a1a1a1a1a1a1a1a1a1a1a1a1a1a2a2a1a1a1a1a1a1a1a1a1a1a1a1a2a2a1a1a1a1a1a1a1a1a1a2a2a2a1a1a1a1a1a1a1a1a1a1a1a1a1a1a1a1a1a1a1a1a1a1a1a1a1a1a1a1a1a1a1a1a1a1a1a1a1a1a1a1a1a1a1a1a1a1a1a1a1a1a1a1a1a1a1a1``",
"a1a1a1a1a1a1a1a1a1a1a1a1a1a1a1a1a1a1a1a2a2a1a1a1a1a1a1a1a1a1a1a1a2a2a1a1a1a1a1a1a1a1a2a2a2a1a1a1a1a1a1a1a1a1a1a1a1a1a1a1a1a1a1a1a1a1a1a1a1a1a1a1a1a1a1a1a1a1a1a1a1a1a1a1a1a1a1a1a1a1a1a1a1a1a1a1a1a1a1a1a1a1``",
"a1a1a1a1a1a1a1a1a1a1a1a1a1a1a1a1a1a1a1a2a2a2a1a1a1a1a1a1a1a1a1a1a2a2a1a1a1a1a1a1a1a1a2a2a1a1a1a1a1a1a1a1a1a2a2a1a1a1a1a1a1a1a1a1a1a1a1a1a1a1a1a1a1a1a1a1a1a1a1a1a1a1a1a1a1a1a1a1a1a1a1a1a1a1a1a1a1a1a1a1a1a1``",
"a1a1a1a1a1a1a1a1a1a1a1a1a1a1a1a1a1a1a1a1a2a2a2a1a1a1a1a1a1a1a1a1a2a2a1a1a1a1a1a1a1a1a2a2a1a1a1a1a1a1a1a1a2a2a2a1a1a1a1a1a1a1a1a1a1a1a1a1a1a1a1a1a1a1a1a1a1a1a1a1a1a1a1a1a1a1a1a1a1a1a1a1a1a1a1a1a1a1a1a1a1a1``",
"a1a1a1a1a1a1a1a1a1a1a1a1a1a1a1a1a1a1a1a1a1a2a2a2a1a1a1a1a1a1a1a1a2a2a1a1a1a1a1a1a1a1a2a2a1a1a1a1a1a1a1a2a2a2a1a1a1a1a1a1a1a1a1a1a1a1a1a1a1a1a1a1a1a1a1a1a1a1a1a1a1a1a1a1a1a1a1a1a1a1a1a1a1a1a1a1a1a1a1a1a1a1``",
"a1a1a1a1a1a1a1a1a1a1a1a1a1a1a1a1a1a1a1a1a1a1a2a2a1a1a1a1a1a1a1a1a2a2a1a1a1a1a1a1a1a1a2a2a1a1a1a1a1a1a1a2a2a1a1a1a1a1a1a1a1a1a1a1a1a2a2a2a2a2a2a2a2a2a2a2a2a2a2a2a2a2a2a2a2a2a2a2a2a1a1a1a1a1a1a1a1a1a1a1a1a1``",
"a1a1a1a1a1a1a1a1a1a1a1a1a1a1a1a1a1a1a1a1a1a1a1a2a2a1a1a1a1a1a1a1a2a2a1a1a1a1a1a1a1a2a2a2a1a1a1a1a1a1a2a2a2a1a1a1a1a1a1a1a1a1a2a2a2a2a2a2a2a2a2a2a2a2a2a2a2a2a2a2a2a2a2a2a2a2a2a2a2a2a2a2a2a1a1a1a1a1a1a1a1a1``",
"a1a1a1a1a1a1a1a1a1a1a1a1a1a1a1a1a1a1a1a1a1a1a1a2a2a2a1a1a1a1a1a1a2a2a1a1a1a1a1a1a1a2a2a1a1a1a1a1a1a1a2a2a1a1a1a1a1a1a1a2a2a2a2a2a2a2a1a1a1a1a1a1a1a1a1a1a1a1a1a1a1a1a1a1a1a1a1a1a1a2a2a2a2a2a2a2a1a1a1a1a1a1``",
"a1a1a1a1a1a2a2a2a2a1a1a1a1a1a1a1a1a1a1a1a1a1a1a1a2a2a1a1a1a1a1a1a2a2a1a1a1a1a1a1a1a2a2a1a1a1a1a1a1a2a2a2a1a1a1a1a1a1a2a2a2a2a2a1a1a1a1a1a1a1a1a1a1a1a1a1a1a1a1a1a1a1a1a1a1a1a1a1a1a1a1a1a2a2a2a2a2a1a1a1a1a1``",
"a1a1a1a1a1a2a2a2a2a2a2a1a1a1a1a1a1a1a1a1a1a1a1a1a1a2a2a1a1a1a1a1a2a2a1a1a1a1a1a1a1a2a2a1a1a1a1a1a1a2a2a1a1a1a1a1a1a1a2a2a1a1a1a1a1a1a1a1a1a1a1a1a1a1a1a1a1a1a1a1a1a1a1a1a1a1a1a1a1a1a1a1a1a1a1a2a2a1a1a1a1a1``",
"a1a1a1a1a1a1a1a1a1a2a2a2a1a1a1a1a1a1a1a1a1a1a1a1a1a2a2a1a1a1a1a1a2a2a1a1a1a1a1a1a2a2a2a1a1a1a1a1a2a2a2a1a1a1a1a1a1a1a2a2a1a1a1a1a1a1a1a1a1a1a1a1a1a1a1a1a1a1a1a1a1a1a1a1a1a1a1a1a1a1a1a1a1a1a1a2a2a1a1a1a1a1``",
"a1a1a1a1a1a1a1a1a1a1a1a2a2a1a1a1a1a1a1a1a1a1a1a1a1a2a2a1a1a1a1a1a2a2a1a1a1a1a1a1a2a2a1a1a1a1a1a1a2a2a1a1a1a1a1a1a1a2a2a2a1a1a1a1a1a1a1a1a1a1a1a1a1a1a1a1a1a1a1a1a1a1a1a1a1a1a1a1a1a1a1a1a1a1a1a2a2a2a1a1a1a1``",
"a1a1a1a1a1a1a1a1a1a1a1a2a2a2a1a1a1a1a1a1a1a1a1a1a1a2a2a1a1a1a1a1a2a2a1a1a1a1a1a2a2a2a1a1a1a1a1a2a2a2a1a1a1a1a1a1a1a2a2a1a1a1a1a1a1a1a1a1a1a1a1a1a1a1a1a1a1a1a1a1a1a1a1a1a1a1a1a1a1a1a1a1a1a1a1a1a2a2a1a1a1a1``",
"a1a1a1a1a1a1a1a1a1a1a1a1a2a2a2a1a1a1a1a1a1a1a1a1a1a2a2a1a1a1a1a1a2a2a2a2a2a2a1a2a2a1a1a1a1a1a1a2a2a1a1a1a1a1a1a1a1a2a2a1a2a2a2a2a2a1a1a1a1a1a1a1a1a2a2a2a1a1a1a1a1a2a1a1a1a1a1a1a2a1a1a1a2a1a1a1a2a2a1a1a1a1``",
"a1a1a1a1a1a1a1a1a1a1a1a1a1a2a2a2a1a1a1a1a1a1a1a1a1a2a2a1a2a2a2a2a2a2a2a2a2a2a2a2a2a2a2a1a1a1a1a2a2a1a1a1a1a1a1a1a2a2a2a1a2a1a1a1a1a2a2a1a1a1a1a2a2a1a1a1a2a2a1a1a1a2a1a1a1a1a1a1a2a1a1a1a2a1a1a1a2a2a1a1a1a1``",
"a1a1a1a1a1a1a1a1a1a1a1a1a1a1a2a2a2a1a1a1a1a1a1a1a1a2a2a2a2a2a2a2a2a1a1a1a1a1a2a2a2a2a2a2a2a1a1a2a2a1a1a1a1a1a1a1a2a2a1a1a2a1a1a1a1a1a2a1a1a1a1a2a1a1a1a1a1a2a1a1a1a2a1a1a1a1a1a1a2a1a1a1a2a1a1a1a2a2a1a1a1a1``",
"a1a1a1a1a1a1a1a1a1a1a1a1a1a1a1a2a2a1a1a1a1a1a1a1a2a2a2a2a1a1a1a1a1a1a1a1a1a1a1a1a1a1a1a2a2a2a2a2a2a1a1a1a1a1a1a1a2a2a1a1a2a1a1a1a1a1a1a2a1a1a2a1a1a1a1a1a1a1a2a1a1a2a1a1a1a1a1a1a2a1a1a1a2a1a1a1a2a2a1a1a1a1``",
"a1a1a1a1a1a1a1a1a1a1a1a1a1a1a1a2a2a2a2a1a1a1a1a2a2a2a1a1a1a1a1a1a1a1a1a1a1a1a1a1a1a1a1a1a1a2a2a2a1a1a1a1a1a1a1a1a2a2a1a1a2a1a1a1a1a1a1a2a1a1a2a1a1a1a1a1a1a1a2a1a1a2a1a1a1a1a1a1a2a1a1a1a2a1a1a1a2a2a1a1a1a1``",
"a1a1a1a1a1a1a1a1a1a1a1a1a1a1a1a1a1a2a2a2a1a2a2a2a1a1a1a1a1a1a1a1a1a1a1a1a1a1a1a1a1a1a1a1a1a1a2a2a2a2a1a1a1a1a1a1a2a2a1a1a2a1a1a1a1a1a1a2a1a1a2a1a1a1a1a1a1a1a2a1a1a2a2a2a2a2a2a2a2a1a1a1a2a1a1a1a2a2a1a1a1a1``",
"a1a1a1a1a1a1a1a1a1a1a1a1a1a1a1a1a1a1a2a2a2a2a2a1a1a1a1a1a1a1a1a1a1a1a1a1a1a1a1a1a1a1a1a1a1a1a1a1a2a2a1a1a1a1a1a1a2a2a1a1a2a1a1a1a1a1a1a2a1a1a2a1a1a1a1a1a1a1a2a1a1a2a1a1a1a1a1a1a2a1a1a1a2a1a1a1a2a2a1a1a1a1``",
"a1a1a1a1a1a1a1a1a1a1a1a1a1a1a1a1a1a1a1a1a2a2a1a1a1a1a1a1a1a1a1a1a1a1a1a1a1a1a1a1a1a1a1a1a1a1a1a1a1a2a2a1a1a1a1a1a2a2a1a1a2a1a1a1a1a1a1a2a1a1a2a1a1a1a1a1a1a1a2a1a1a2a1a1a1a1a1a1a2a1a1a1a2a1a1a1a2a2a1a1a1a1``",
"a1a1a1a1a1a1a1a1a1a1a1a1a1a1a1a1a1a1a1a2a2a1a1a1a1a1a1a1a1a1a1a1a1a1a1a1a1a1a1a1a1a1a1a1a1a1a1a1a1a2a2a2a1a1a1a1a2a2a1a1a2a1a1a1a1a1a2a1a1a1a1a2a1a1a1a1a1a2a1a1a1a2a1a1a1a1a1a1a2a1a1a1a1a1a1a1a2a2a1a1a1a1``",
"a1a1a1a1a1a1a1a1a1a1a1a1a1a1a1a1a1a1a2a2a2a1a1a1a1a1a1a1a1a1a1a1a1a1a1a1a1a1a1a1a1a1a1a1a1a1a1a1a1a1a2a2a1a1a1a1a1a2a2a1a2a1a1a1a1a2a2a1a1a1a1a2a2a1a1a1a2a2a1a1a1a2a1a1a1a1a1a1a2a1a1a1a2a1a1a1a2a2a1a1a1a1``",
"a1a1a1a1a1a1a1a1a1a1a1a1a1a1a1a1a1a1a2a2a1a1a1a1a1a1a1a1a1a1a1a1a1a1a1a1a1a1a1a1a1a1a1a1a1a1a1a1a1a1a1a2a2a1a1a1a1a2a2a1a2a2a2a2a2a1a1a1a1a1a1a1a1a2a2a2a1a1a1a1a1a2a1a1a1a1a1a1a2a1a1a1a2a1a1a1a2a2a1a1a1a1``",
"a1a1a1a1a1a1a1a1a1a1a1a1a1a1a1a1a1a1a2a2a1a1a1a1a1a1a1a1a1a1a1a1a1a1a1a1a1a1a1a1a1a1a1a1a1a1a1a1a1a1a1a2a2a1a1a1a1a2a2a1a1a1a1a1a1a1a1a1a1a1a1a1a1a1a1a1a1a1a1a1a1a1a1a1a1a1a1a1a1a1a1a1a1a1a1a1a2a2a1a1a1a1``",
"a1a1a1a1a1a1a1a1a1a1a1a1a1a1a1a1a1a2a2a1a1a1a1a1a1a1a1a1a1a1a1a1a1a1a1a1a1a1a1a1a1a1a1a1a1a1a1a1a1a1a1a1a2a2a1a1a1a2a2a2a1a1a1a1a1a1a1a1a1a1a1a1a1a1a1a1a1a1a1a1a1a1a1a1a1a1a1a1a1a1a1a1a1a1a1a2a2a2a1a1a1a1``",
"a1a1a1a1a1a1a1a1a1a1a1a1a1a1a1a1a1a2a2a1a1a1a1a1a1a1a1a1a1a1a1a1a1a1a1a1a1a1a1a1a1a1a1a1a1a1a1a1a1a1a1a1a2a2a1a1a1a1a2a2a1a1a1a1a1a1a1a1a1a1a1a1a1a1a1a1a1a1a1a1a1a1a1a1a1a1a1a1a1a1a1a1a1a1a1a2a2a1a1a1a1a1``",
"a1a1a1a1a1a1a1a1a1a1a1a1a1a1a1a1a1a2a2a1a1a1a1a1a1a1a1a1a1a1a1a1a1a1a1a1a1a1a1a1a1a1a1a1a1a1a1a1a1a1a1a1a2a2a1a1a1a1a2a2a1a1a1a1a1a1a1a1a1a1a1a1a1a1a1a1a1a1a1a1a1a1a1a1a1a1a1a1a1a1a1a1a1a1a1a2a2a1a1a1a1a1``",
"a1a1a1a1a1a1a1a1a1a1a1a1a1a1a1a1a1a2a2a1a1a1a1a1a1a1a1a1a1a1a1a1a1a1a1a1a1a1a1a1a1a1a1a1a1a1a1a1a1a1a1a1a2a2a1a1a1a1a2a2a2a2a2a1a1a1a1a1a1a1a1a1a1a1a1a1a1a1a1a1a1a1a1a1a1a1a1a1a1a1a1a1a2a2a2a2a2a1a1a1a1a1``",
"a1a1a1a1a1a1a1a1a1a1a1a1a1a1a1a1a1a2a2a1a1a1a1a1a1a1a1a1a1a1a1a1a1a1a1a1a1a1a1a1a1a1a1a1a1a1a1a1a1a1a1a1a2a2a1a1a1a1a1a2a2a2a2a2a2a2a2a2a2a1a1a1a1a1a1a1a1a2a2a2a2a2a2a2a2a2a2a2a2a2a2a2a2a2a2a2a1a1a1a1a1a1``",
"a1a1a1a1a1a1a1a1a1a1a1a1a1a1a1a1a2a2a1a1a1a1a1a1a1a2a1a1a1a2a2a1a1a1a1a1a1a1a1a1a1a1a1a2a1a1a1a1a1a1a1a1a2a2a1a1a1a1a1a1a1a1a2a2a2a2a2a2a2a2a1a1a1a1a1a1a2a2a2a2a2a2a2a2a2a2a2a2a2a2a2a2a2a1a1a1a1a1a1a1a1a1``",
"a1a1a1a1a1a1a1a1a1a1a1a1a1a1a1a1a2a2a1a1a1a1a1a1a1a2a2a1a2a2a2a1a1a1a1a1a1a1a1a2a2a2a2a2a1a1a1a1a1a1a1a1a2a2a1a1a1a1a1a1a1a1a1a1a1a1a1a1a2a2a1a1a1a1a1a2a2a2a1a1a1a1a1a1a1a1a1a1a1a1a1a1a1a1a1a1a1a1a1a1a1a1``",
"a1a1a1a1a1a1a1a1a1a1a1a1a1a1a1a1a2a2a1a1a1a1a1a1a1a2a2a2a2a2a1a1a1a1a1a1a1a1a1a2a2a2a2a2a1a1a1a1a1a1a1a1a2a2a1a1a1a1a1a1a1a1a1a1a1a1a1a1a2a2a1a1a1a1a2a2a2a1a1a1a1a1a1a1a1a1a1a1a1a1a1a1a1a1a1a1a1a1a1a1a1a1``",
"a1a1a1a1a1a1a1a1a1a1a1a1a1a1a1a1a2a2a1a1a1a1a1a1a1a1a2a2a2a1a1a1a1a1a1a1a1a1a1a1a2a2a2a2a1a1a1a1a1a1a1a1a2a2a1a1a1a1a1a1a1a1a1a1a1a1a1a1a2a2a1a1a1a2a2a2a1a1a1a1a1a1a1a1a1a1a1a1a1a1a1a1a1a1a1a1a1a1a1a1a1a1``",
"a1a1a1a1a1a1a1a1a1a1a1a1a1a1a1a1a2a2a1a1a1a1a1a1a1a1a2a2a2a2a1a1a1a1a1a1a1a1a1a2a2a2a2a2a2a1a1a1a1a1a1a1a2a2a1a1a1a1a1a1a1a1a1a1a1a1a1a1a2a2a1a1a2a2a2a1a1a1a1a1a1a1a1a1a1a1a1a1a1a1a1a1a1a1a1a1a1a1a1a1a1a1``",
"a1a1a1a1a1a1a1a1a1a1a1a1a1a1a1a1a2a2a1a1a1a1a1a1a1a2a2a2a2a2a1a1a1a1a1a1a1a1a1a2a2a1a1a2a1a1a1a1a1a1a1a1a2a2a1a1a1a1a1a1a1a1a1a1a1a1a1a1a2a2a1a2a2a2a1a1a1a1a1a1a1a1a1a1a1a1a1a1a1a1a1a1a1a1a1a1a1a1a1a1a1a1``",
"a1a1a1a1a1a1a1a1a1a1a1a1a1a1a1a1a2a2a1a1a1a1a1a1a1a2a2a1a1a1a1a1a1a1a1a1a1a1a1a1a1a1a1a1a1a1a1a1a1a1a1a1a2a2a1a1a1a1a1a1a1a1a1a1a1a1a1a1a2a2a2a2a2a1a1a1a1a1a1a1a1a1a1a1a1a1a1a1a1a1a1a1a1a1a1a1a1a1a1a1a1a1``",
"a1a1a1a1a1a1a1a1a1a1a1a1a1a1a1a1a2a2a1a1a1a1a1a1a1a1a1a1a1a1a1a1a1a1a1a1a1a1a1a1a1a1a1a1a1a1a1a1a1a1a1a1a2a2a1a1a1a1a1a1a1a1a1a1a1a1a1a1a2a2a2a2a1a1a1a1a1a1a1a1a1a1a1a1a1a1a1a1a1a1a1a1a1a1a1a1a1a1a1a1a1a1``",
"a1a1a1a1a1a1a1a1a1a1a1a1a1a1a1a1a2a2a1a1a1a1a1a1a1a1a1a1a1a1a1a1a1a1a1a1a1a1a1a1a1a1a1a1a1a1a1a1a1a1a1a1a2a2a1a1a1a1a1a1a1a1a1a1a1a1a1a1a2a2a2a1a1a1a1a1a1a1a1a1a1a1a1a1a1a1a1a1a1a1a1a1a1a1a1a1a1a1a1a1a1a1``",
"a1a1a1a1a1a1a1a1a1a1a1a1a1a1a1a1a2a2a1a1a1a1a1a1a1a1a1a1a1a1a1a1a1a2a2a1a1a1a1a1a1a1a1a1a1a1a1a1a1a1a1a1a2a2a1a1a1a1a1a1a1a1a1a1a1a1a1a1a1a1a1a1a1a1a1a1a1a1a1a1a1a1a1a1a1a1a1a1a1a1a1a1a1a1a1a1a1a1a1a1a1a1``",
"a1a1a1a1a1a1a1a1a1a1a1a1a1a1a1a1a2a2a1a1a1a1a1a1a1a1a1a1a1a1a1a1a1a2a2a2a1a1a1a1a1a1a1a1a1a1a1a1a1a1a1a1a2a2a1a1a1a1a1a1a1a1a1a1a1a1a1a1a1a1a1a1a1a1a1a1a1a1a1a1a1a1a1a1a1a1a1a1a1a1a1a1a1a1a1a1a1a1a1a1a1a1``",
"a1a1a1a1a1a1a1a1a1a1a1a1a1a1a1a1a2a2a1a1a1a1a1a1a1a1a1a1a1a1a1a1a1a1a2a2a2a1a1a1a1a1a1a1a1a1a1a1a1a1a1a1a2a2a1a1a1a1a1a1a1a1a1a1a1a1a1a1a1a1a1a1a1a1a1a1a1a1a1a1a1a1a1a1a1a1a1a1a1a1a1a1a1a1a1a1a1a1a1a1a1a1``",
"a1a1a1a1a1a1a1a1a1a1a1a1a1a1a1a1a2a2a1a1a1a1a1a1a1a1a1a1a1a1a1a1a1a1a1a2a2a2a1a1a1a1a1a1a1a1a1a1a1a1a1a1a2a2a1a1a1a1a1a1a1a1a1a1a1a1a1a1a1a1a1a1a1a1a1a1a1a1a1a1a1a1a1a1a1a1a1a1a1a1a1a1a1a1a1a1a1a1a1a1a1a1``",
"a1a1a1a1a1a1a1a1a1a1a1a1a1a1a1a1a2a2a1a1a1a1a1a1a1a1a1a1a1a1a1a1a1a1a1a1a1a2a2a1a1a1a1a1a1a1a1a1a1a1a1a1a2a2a1a1a1a1a1a1a1a1a1a1a1a1a1a1a1a1a1a1a1a1a1a1a1a1a1a1a1a1a1a1a1a1a1a1a1a1a1a1a1a1a1a1a1a1a1a1a1a1``",
"a1a1a1a1a1a1a1a1a1a1a1a1a1a1a1a1a2a2a1a1a1a1a1a1a1a1a1a1a1a1a1a1a1a1a1a1a1a2a2a1a1a1a1a1a1a1a1a1a1a1a1a1a2a2a1a1a1a1a1a1a1a1a1a1a1a1a1a1a1a1a1a1a1a1a1a1a1a1a1a1a1a1a1a1a1a1a1a1a1a1a1a1a1a1a1a1a1a1a1a1a1a1``",
"a1a1a1a1a1a1a1a1a1a1a1a1a1a1a1a1a2a2a1a1a1a1a1a1a1a1a1a1a1a1a1a1a1a1a1a1a1a1a1a1a1a1a1a1a1a1a1a1a1a1a1a1a2a2a1a1a1a1a1a1a1a1a1a1a1a1a1a1a1a1a1a1a1a1a1a1a1a1a1a1a1a1a1a1a1a1a1a1a1a1a1a1a1a1a1a1a1a1a1a1a1a1``",
"a1a1a1a1a1a1a1a1a1a1a1a1a1a1a1a1a2a2a1a1a1a1a1a1a1a2a2a2a2a2a2a2a2a1a1a1a1a1a1a1a1a1a1a1a1a1a1a1a1a1a1a1a2a2a1a1a1a1a1a1a1a1a1a1a1a1a1a1a1a1a1a1a1a1a1a1a1a1a1a1a1a1a1a1a1a1a1a1a1a1a1a1a1a1a1a1a1a1a1a1a1a1``",
"a1a1a1a1a1a1a1a1a1a1a1a1a1a1a1a1a2a2a1a1a1a1a1a1a2a2a2a2a2a2a2a2a2a2a2a1a1a1a1a1a1a1a1a1a1a1a1a1a1a1a1a1a2a2a1a1a1a1a1a1a1a1a1a1a1a1a1a1a1a1a1a1a1a1a1a1a1a1a1a1a1a1a1a1a1a1a1a1a1a1a1a1a1a1a1a1a1a1a1a1a1a1``",
"a1a1a1a1a1a1a1a1a1a1a1a1a1a1a1a1a2a2a1a1a1a1a1a1a2a2a1a1a1a1a1a1a2a2a2a2a2a2a1a1a1a1a1a1a1a1a1a1a1a1a1a1a2a2a1a1a1a1a1a1a1a1a1a1a1a1a1a1a1a1a1a1a1a1a1a1a1a1a1a1a1a1a1a1a1a1a1a1a1a1a1a1a1a1a1a1a1a1a1a1a1a1``",
"a1a1a1a1a1a1a1a1a1a1a1a1a1a1a1a1a2a2a1a1a1a1a1a1a2a2a1a1a1a1a1a1a1a1a1a2a2a2a2a2a1a1a1a1a1a1a1a1a1a1a1a1a2a2a1a1a1a1a1a1a1a1a1a1a1a1a1a1a1a1a1a1a1a1a1a1a1a1a1a1a1a1a1a1a1a1a1a1a1a1a1a1a1a1a1a1a1a1a1a1a1a1``",
"a1a1a1a1a1a1a1a1a1a1a1a1a1a1a1a1a2a2a1a1a1a1a1a1a2a2a2a1a1a1a1a1a1a1a1a1a1a2a2a2a2a1a1a1a1a1a1a1a1a1a1a1a2a2a1a1a1a1a1a1a1a1a1a1a1a1a1a1a1a1a1a1a1a1a1a1a1a1a1a1a1a1a1a1a1a1a1a1a1a1a1a1a1a1a1a1a1a1a1a1a1a1``",
"a1a1a1a1a1a1a1a1a1a1a1a1a1a1a1a1a1a2a2a1a1a1a1a1a1a2a2a2a2a2a2a2a2a2a2a1a1a1a1a2a2a2a2a1a1a1a1a1a1a1a1a1a2a2a1a1a1a1a1a1a1a1a1a1a1a1a1a1a1a1a1a1a1a1a1a1a1a1a1a1a1a1a1a1a1a1a1a1a1a1a1a1a1a1a1a1a1a1a1a1a1a1``",
"a1a1a1a1a1a1a1a1a1a1a1a1a1a1a1a1a1a2a2a1a1a1a1a1a1a1a1a2a2a2a2a2a2a2a2a2a2a2a1a1a1a2a2a1a1a1a1a1a1a1a1a1a2a2a1a1a1a1a1a1a1a1a1a1a1a1a1a1a1a1a1a1a1a1a1a1a1a1a1a1a1a1a1a1a1a1a1a1a1a1a1a1a1a1a1a1a1a1a1a1a1a1``",
"a1a1a1a1a1a1a1a1a1a1a1a1a1a1a1a1a1a2a2a1a1a1a1a1a1a1a1a1a1a1a1a1a1a1a1a2a2a2a2a2a2a2a2a1a1a1a1a1a1a1a1a1a2a2a1a1a1a1a1a1a1a1a1a1a1a1a1a1a1a1a1a1a1a1a1a1a1a1a1a1a1a1a1a1a1a1a1a1a1a1a1a1a1a1a1a1a1a1a1a1a1a1``",
"a1a1a1a1a1a1a1a1a1a1a1a1a1a1a1a1a1a2a2a1a1a1a1a1a1a1a1a1a1a1a1a1a1a1a1a1a1a1a2a2a2a2a2a1a1a1a1a1a1a1a1a1a2a2a1a1a1a1a1a1a1a1a1a1a1a1a1a1a1a1a1a1a1a1a1a1a1a1a1a1a1a1a1a1a1a1a1a1a1a1a1a1a1a1a1a1a1a1a1a1a1a1``",
"a1a1a1a1a1a1a1a1a1a1a1a1a1a1a1a1a1a2a2a1a1a1a1a1a1a1a1a1a1a1a1a1a1a1a1a1a1a1a1a1a1a1a1a1a1a1a1a1a1a1a1a1a2a2a1a1a1a1a1a1a1a1a1a1a1a1a1a1a1a1a1a1a1a1a1a1a1a1a1a1a1a1a1a1a1a1a1a1a1a1a1a1a1a1a1a1a1a1a1a1a1a1``",
"a1a1a1a1a1a1a1a1a1a1a1a1a1a1a1a1a1a1a2a2a1a1a1a1a1a1a1a1a1a1a1a1a1a1a1a1a1a1a1a1a1a1a1a1a1a1a1a1a1a1a1a2a2a1a1a1a1a1a1a1a1a1a1a1a1a1a1a1a1a1a1a1a1a1a1a1a1a1a1a1a1a1a1a1a1a1a1a1a1a1a1a1a1a1a1a1a1a1a1a1a1a1``",
"a1a1a1a1a1a1a1a1a1a1a1a1a1a1a1a1a1a1a2a2a1a1a1a1a1a1a1a1a1a1a1a1a1a1a1a1a1a1a1a1a1a1a1a1a1a1a1a1a1a1a1a2a2a1a1a1a1a1a1a1a1a1a1a1a1a1a1a1a1a1a1a1a1a1a1a1a1a1a1a1a1a1a1a1a1a1a1a1a1a1a1a1a1a1a1a1a1a1a1a1a1a1``",
"a1a1a1a1a1a1a1a1a1a1a1a1a1a1a1a1a1a1a2a2a2a1a1a1a1a1a1a1a1a1a1a1a1a1a1a1a1a1a1a1a1a1a1a1a1a1a1a1a1a1a2a2a1a1a1a1a1a1a1a1a1a1a1a1a1a1a1a1a1a1a1a1a1a1a1a1a1a1a1a1a1a1a1a1a1a1a1a1a1a1a1a1a1a1a1a1a1a1a1a1a1a1``",
"a1a1a1a1a1a1a1a1a1a1a1a1a1a1a1a1a1a1a1a2a2a1a1a1a1a1a1a1a1a1a1a1a1a1a1a1a1a1a1a1a1a1a1a1a1a1a1a1a1a2a2a2a1a1a1a1a1a1a1a1a1a1a1a1a1a1a1a1a1a1a1a1a1a1a1a1a1a1a1a1a1a1a1a1a1a1a1a1a1a1a1a1a1a1a1a1a1a1a1a1a1a1``",
"a1a1a1a1a1a1a1a1a1a1a1a1a1a1a1a1a1a1a1a1a2a2a1a1a1a1a1a1a1a1a1a1a1a1a1a1a1a1a1a1a1a1a1a1a1a1a1a1a1a2a2a1a1a1a1a1a1a1a1a1a1a1a1a1a1a1a1a1a1a1a1a1a1a1a1a1a1a1a1a1a1a1a1a1a1a1a1a1a1a1a1a1a1a1a1a1a1a1a1a1a1a1``",
"a1a1a1a1a1a1a1a1a1a1a1a1a1a1a1a1a1a1a1a1a1a2a2a1a1a1a1a1a1a1a1a1a1a1a1a1a1a1a1a1a1a1a1a1a1a1a1a1a2a2a1a1a1a1a1a1a1a1a1a1a1a1a1a1a1a1a1a1a1a1a1a1a1a1a1a1a1a1a1a1a1a1a1a1a1a1a1a1a1a1a1a1a1a1a1a1a1a1a1a1a1a1``",
"a1a1a1a1a1a1a1a1a1a1a1a1a1a1a1a1a1a1a1a1a1a2a2a2a1a1a1a1a1a1a1a1a1a1a1a1a1a1a1a1a1a1a1a1a1a1a2a2a2a2a1a1a1a1a1a1a1a1a1a1a1a1a1a1a1a1a1a1a1a1a1a1a1a1a1a1a1a1a1a1a1a1a1a1a1a1a1a1a1a1a1a1a1a1a1a1a1a1a1a1a1a1``",
"a1a1a1a1a1a1a1a1a1a1a1a1a1a1a1a1a1a1a1a1a1a1a1a2a2a2a1a1a1a1a1a1a1a1a1a1a1a1a1a1a1a1a1a1a1a2a2a2a1a1a1a1a1a1a1a1a1a1a1a1a1a1a1a1a1a1a1a1a1a1a1a1a1a1a1a1a1a1a1a1a1a1a1a1a1a1a1a1a1a1a1a1a1a1a1a1a1a1a1a1a1a1``",
"a1a1a1a1a1a1a1a1a1a1a1a1a1a1a1a1a1a1a1a1a1a1a1a1a2a2a2a2a1a1a1a1a1a1a1a1a1a1a1a1a1a1a1a2a2a2a2a1a1a1a1a1a1a1a1a1a1a1a1a1a1a1a1a1a1a1a1a1a1a1a1a1a1a1a1a1a1a1a1a1a1a1a1a1a1a1a1a1a1a1a1a1a1a1a1a1a1a1a1a1a1a1``",
"a1a1a1a1a1a1a1a1a1a1a1a1a1a1a1a1a1a1a1a1a1a1a1a1a1a2a2a2a2a2a2a2a2a2a2a2a2a2a2a2a2a2a2a2a2a1a1a1a1a1a1a1a1a1a1a1a1a1a1a1a1a1a1a1a1a1a1a1a1a1a1a1a1a1a1a1a1a1a1a1a1a1a1a1a1a1a1a1a1a1a1a1a1a1a1a1a1a1a1a1a1a1``",
"a1a1a1a1a1a1a1a1a1a1a1a1a1a1a1a1a1a1a1a1a1a1a1a1a1a1a1a1a2a2a2a2a2a2a2a2a2a2a2a2a2a2a2a1a1a1a1a1a1a1a1a1a1a1a1a1a1a1a1a1a1a1a1a1a1a1a1a1a1a1a1a1a1a1a1a1a1a1a1a1a1a1a1a1a1a1a1a1a1a1a1a1a1a1a1a1a1a1a1a1a1a1``",
"a1a1a1a1a1a1a1a1a1a1a1a1a1a1a1a1a1a1a1a1a1a1a1a1a1a1a1a1a1a1a1a1a1a1a1a1a1a1a1a1a1a1a1a1a1a1a1a1a1a1a1a1a1a1a1a1a1a1a1a1a1a1a1a1a1a1a1a1a1a1a1a1a1a1a1a1a1a1a1a1a1a1a1a1a1a1a1a1a1a1a1a1a1a1a1a1a1a1a1a1a1a1``",
"a1a1a1a1a1a1a1a1a1a1a1a1a1a1a1a1a1a1a1a1a1a1a1a1a1a1a1a1a1a1a1a1a1a1a1a1a1a1a1a1a1a1a1a1a1a1a1a1a1a1a1a1a1a1a1a1a1a1a1a1a1a1a1a1a1a1a1a1a1a1a1a1a1a1a1a1a1a1a1a1a1a1a1a1a1a1a1a1a1a1a1a1a1a1a1a1a1a1a1a1a1a1``",
"a1a1a1a1a1a1a1a1a1a1a1a1a1a1a1a1a1a1a1a1a1a1a1a1a1a1a1a1a1a1a1a1a1a1a1a1a1a1a1a1a1a1a1a1a1a1a1a1a1a1a1a1a1a1a1a1a1a1a1a1a1a1a1a1a1a1a1a1a1a1a1a1a1a1a1a1a1a1a1a1a1a1a1a1a1a1a1a1a1a1a1a1a1a1a1a1a1a1a1a1a1a1``",
"a1a1a1a1a1a1a1a1a1a1a1a1a1a1a1a1a1a1a1a1a1a1a1a1a1a1a1a1a1a1a1a1a1a1a1a1a1a1a1a1a1a1a1a1a1a1a1a1a1a1a1a1a1a1a1a1a1a1a1a1a1a1a1a1a1a1a1a1a1a1a1a1a1a1a1a1a1a1a1a1a1a1a1a1a1a1a1a1a1a1a1a1a1a1a1a1a1a1a1a1a1a1``",
"a1a1a1a1a1a1a1a1a1a1a1a1a1a1a1a1a1a1a1a1a1a1a1a1a1a1a1a1a1a1a1a1a1a1a1a1a1a1a1a1a1a1a1a1a1a1a1a1a1a1a1a1a1a1a1a1a1a1a1a1a1a1a1a1a1a1a1a1a1a1a1a1a1a1a1a1a1a1a1a1a1a1a1a1a1a1a1a1a1a1a1a1a1a1a1a1a1a1a1a1a1a1``",
"a1a1a1a1a1a1a1a1a1a1a1a1a1a1a1a1a1a1a1a1a1a1a1a1a1a1a1a1a1a1a1a1a1a1a1a1a1a1a1a1a1a1a1a1a1a1a1a1a1a1a1a1a1a1a1a1a1a1a1a1a1a1a1a1a1a1a1a1a1a1a1a1a1a1a1a1a1a1a1a1a1a1a1a1a1a1a1a1a1a1a1a1a1a1a1a1a1a1a1a1a1a1``",
"a1a1a1a1a1a1a1a1a1a1a1a1a1a1a1a1a1a1a1a1a1a1a1a1a1a1a1a1a1a1a1a1a1a1a1a1a1a1a1a1a1a1a1a1a1a1a1a1a1a1a1a1a1a1a1a1a1a1a1a1a1a1a1a1a1a1a1a1a1a1a1a1a1a1a1a1a1a1a1a1a1a1a1a1a1a1a1a1a1a1a1a1a1a1a1a1a1a1a1a1a1a1``",
"a1a1a1a1a1a1a1a1a1a1a1a1a1a1a1a1a1a1a1a1a1a1a1a1a1a1a1a1a1a1a1a1a1a1a1a1a1a1a1a1a1a1a1a1a1a1a1a1a1a1a1a1a1a1a1a1a1a1a1a1a1a1a1a1a1a1a1a1a1a1a1a1a1a1a1a1a1a1a1a1a1a1a1a1a1a1a1a1a1a1a1a1a1a1a1a1a1a1a1a1a1a1``",
"``````````````````````````````````````````````````````````````````````````````````````````````````````````````````````````````````````````````````````````````````````````````````````````````````````````````"
};
